---
permalink: favicon.svg
layout: static
---
<?xml version="1.0" encoding="UTF-8" standalone="no"?>
<!-- Created with Inkscape (http://www.inkscape.org/) -->

<svg
   width="16.0px"
   height="16.0px"
   viewBox="0 0 16.0 16.0"
   version="1.1"
   id="SVGRoot"
   sodipodi:docname="favicon.svg"
   xml:space="preserve"
   inkscape:version="1.2.2 (b0a8486541, 2022-12-01)"
   xmlns:inkscape="http://www.inkscape.org/namespaces/inkscape"
   xmlns:sodipodi="http://sodipodi.sourceforge.net/DTD/sodipodi-0.dtd"
   xmlns="http://www.w3.org/2000/svg"
   xmlns:svg="http://www.w3.org/2000/svg"><sodipodi:namedview
     id="namedview137"
     pagecolor="#ffffff"
     bordercolor="#666666"
     borderopacity="1.0"
     inkscape:showpageshadow="2"
     inkscape:pageopacity="0.0"
     inkscape:pagecheckerboard="0"
     inkscape:deskcolor="#d1d1d1"
     inkscape:document-units="px"
     showgrid="true"
     inkscape:zoom="26.910887"
     inkscape:cx="4.4034224"
     inkscape:cy="13.154528"
     inkscape:window-width="1916"
     inkscape:window-height="1006"
     inkscape:window-x="0"
     inkscape:window-y="20"
     inkscape:window-maximized="1"
     inkscape:current-layer="layer1"><inkscape:grid
       type="xygrid"
       id="grid260" /></sodipodi:namedview><defs
     id="defs132" /><g
     inkscape:label="Layer 1"
     inkscape:groupmode="layer"
     id="layer1"><rect
       style="font-variation-settings:normal;opacity:1;vector-effect:none;fill:#905c42;fill-opacity:1;stroke-width:1.39875;stroke-linecap:butt;stroke-linejoin:miter;stroke-miterlimit:4;stroke-dasharray:5.59497, 5.59497;stroke-dashoffset:0;stroke-opacity:1;-inkscape-stroke:none;stop-color:#000000;stop-opacity:1"
       id="rect3063"
       width="16.276457"
       height="16.346331"
       x="-0.23289354"
       y="-0.20140161"
       rx="31.584318"
       ry="0" /><ellipse
       style="font-variation-settings:normal;vector-effect:none;fill:#b3c8ae;fill-opacity:1;stroke-width:1.46661;stroke-linecap:butt;stroke-linejoin:miter;stroke-miterlimit:4;stroke-dasharray:5.86647, 5.86647;stroke-dashoffset:0;stroke-opacity:1;-inkscape-stroke:none;stop-color:#000000"
       id="path1593-6"
       cx="8.096056"
       cy="7.878397"
       rx="5.6425285"
       ry="6.1091661" /><path
       style="fill:#918b50;fill-opacity:1;stroke:none;stroke-width:1.58862px;stroke-linecap:butt;stroke-linejoin:miter;stroke-opacity:1"
       d="M 2.8120896,11.881913 10.483751,6.1069458 13.003579,12.657231 Z"
       id="path3981" /><path
       style="font-variation-settings:normal;opacity:1;vector-effect:none;fill:#ffeacf;fill-opacity:1;stroke:none;stroke-width:1.8;stroke-linecap:butt;stroke-linejoin:miter;stroke-miterlimit:4;stroke-dasharray:7.2, 7.2;stroke-dashoffset:0;stroke-opacity:1;-inkscape-stroke:none;stop-color:#000000;stop-opacity:1"
       id="path6799"
       d="M 10.633567,3.1321051 C 10.393219,3.2540762 10.188483,3.4348587 9.9762629,3.5983432 9.9005742,3.6566503 9.8236471,3.7133321 9.7473392,3.7708266 9.1746868,4.1753875 8.6457688,4.6367608 8.1126793,5.0909617 7.5545609,5.5247317 7.0259064,5.9928521 6.5233684,6.4894862 6.169212,6.84382 5.8228068,7.2058201 5.4752244,7.5665682 5.1780972,7.8791521 4.8930139,8.2029814 4.5880379,8.5079993 4.5502843,8.5429935 4.3077718,8.7686138 4.2691716,8.8010289 4.149769,8.9012987 4.022153,8.9913699 3.8996941,9.0878833 3.7694836,9.1905062 3.6590768,9.2808947 3.530677,9.3851467 3.3299557,9.5570865 3.1263842,9.7326323 2.9769052,9.9532631 2.8930224,10.077074 2.8792162,10.127237 2.8163645,10.269266 c -0.1085907,0.37226 -0.024322,0.673906 0.1140421,1.019305 0.1387799,0.320849 0.3632254,0.594366 0.6425192,0.803813 0.062788,0.04709 0.1298513,0.08818 0.1947769,0.132274 0.3607806,0.228589 0.7674997,0.356522 1.1834125,0.440887 0.1464697,0.02971 0.2934062,0.05826 0.4416325,0.07737 0.1606757,0.02071 0.3227994,0.02798 0.4841991,0.04198 0.6582352,0.0393 1.3161989,0.02518 1.9735302,-0.0145 0.1535579,-0.0093 0.3069614,-0.02095 0.4604745,-0.03093 0.1388662,-0.009 0.278687,-0.008 0.4166612,-0.02612 0.00952,-0.0013 -0.00573,-0.01833 -0.00859,-0.02749 0.4310278,-0.03071 0.8607872,-0.08845 1.2932453,-0.09484 0.279056,0.0056 0.560986,0.02867 0.829676,-0.06059 0.0953,-0.03166 0.163642,-0.0683 0.25223,-0.111615 0.06613,-0.04263 -0.536789,-0.977806 -0.602916,-0.935173 v 0 c -0.05165,0.01108 -0.0985,0.0132 -0.151688,0.01142 -0.02286,-7.66e-4 -0.09125,-0.0048 -0.06839,-0.0056 0.157172,-0.0054 0.308537,0.0098 0.104046,-0.0072 C 9.9495506,11.407007 9.5313402,11.288114 9.0990573,11.25013 8.5347577,11.22503 7.9701953,11.19416 7.4052118,11.1889 7.177894,11.1868 6.6103863,11.1872 6.3854007,11.20532 c -0.033959,0.0027 -0.064393,0.02228 -0.096589,0.03342 -0.1523686,0.01063 -0.3048864,0.0193 -0.4571058,0.03188 -0.4997456,0.04132 -0.2683263,0.03925 -0.7138551,0.05245 -0.1093168,0.0032 -0.3053587,0.0084 -0.4222964,-0.0084 C 4.6467984,11.30767 4.5998554,11.2913 4.5520061,11.27962 4.5137521,11.26388 4.4742111,11.25097 4.4372453,11.23241 4.2726101,11.14974 4.1298325,11.021785 4.018065,10.876946 3.977279,10.803396 3.943419,10.721664 3.8970202,10.651465 c -0.00445,-0.0067 -0.00921,-0.01653 -0.017275,-0.01698 -0.020705,-0.0011 -0.014295,0.0676 -0.027251,0.05592 0.00967,0.03141 5.429e-4,0.01518 0.057713,-0.02048 0.029541,-0.01842 0.058596,-0.03761 0.087878,-0.05645 C 4.1582853,10.51047 4.3189707,10.407848 4.4710824,10.292919 4.6457012,10.164618 4.7098941,10.121428 4.8780449,9.9814726 5.1403954,9.7631127 5.3808737,9.5191687 5.6134128,9.2697934 5.8986035,8.9552513 6.1934372,8.6494352 6.4909075,8.3465134 6.5966887,8.242451 6.6886574,8.1495658 6.7994688,8.0504505 7.0537169,7.823038 7.3259922,7.6164254 7.5874845,7.3976603 8.1247028,6.9644181 8.6585381,6.526862 9.1701386,6.0632936 9.7404937,5.6153258 10.331086,5.1831165 10.816801,4.6401606 c 0.233586,-0.2725322 0.47697,-0.5477697 0.636456,-0.8722413 0.04496,-0.057961 -0.774731,-0.6937751 -0.81969,-0.6358142 z" /><path
       id="path1593"
       style="fill:#fdb258;fill-opacity:1;stroke-width:1.8;stroke-dasharray:7.2, 7.2;stop-color:#000000;font-variation-settings:normal;opacity:1;vector-effect:none;stroke-linecap:butt;stroke-linejoin:miter;stroke-miterlimit:4;stroke-dashoffset:0;stroke-opacity:1;-inkscape-stroke:none;stop-opacity:1"
       d="M 8.0957031 0.38085938 A 6.9251575 7.4978685 0 0 0 1.171875 7.8789062 A 6.9251575 7.4978685 0 0 0 8.0957031 15.376953 A 6.9251575 7.4978685 0 0 0 15.021484 7.8789062 A 6.9251575 7.4978685 0 0 0 8.0957031 0.38085938 z M 8.0957031 1.7695312 A 5.6425285 6.1091661 0 0 1 13.738281 7.8789062 A 5.6425285 6.1091661 0 0 1 8.0957031 13.988281 A 5.6425285 6.1091661 0 0 1 2.453125 7.8789062 A 5.6425285 6.1091661 0 0 1 8.0957031 1.7695312 z " /></g></svg>
